<svg width="42" height="13" viewBox="0 0 42 13" fill="none" xmlns="http://www.w3.org/2000/svg">
<path fill-rule="evenodd" clip-rule="evenodd" d="M16.7546 2.61664V4.3063H18.4381V11.9287H20.5359V4.3063H22.1231V2.61664H16.7546ZM32.9358 6.21444H31.3303V2.62909H29.2389V11.9411H31.3303V7.90404H32.9358V11.9411H35.0272V2.62909H32.9358V6.21444ZM25.6511 2.51643H25.2867C23.3978 2.51643 22.6423 3.48017 22.6423 5.04479V9.48792C22.6423 11.0526 23.3978 12.0538 25.3273 12.0538H25.6915C27.6074 12.0538 28.282 10.9023 28.282 9.6007V8.01118H26.2312V9.48792C26.2312 10.0388 26.0423 10.3767 25.5026 10.3767C24.9764 10.3767 24.8011 10.0638 24.8011 9.47553V5.03221C24.8011 4.44391 24.9764 4.14363 25.5026 4.14363C26.0557 4.14363 26.2312 4.46895 26.2312 5.03221V6.1086H28.282V4.91956C28.282 3.36765 27.5535 2.51643 25.6511 2.51643ZM14.7125 8.74992L14.1043 4.85729H13.7446L13.1363 8.74992H14.7125ZM15.4752 2.61664L17.1214 11.9287H15.2092L14.9765 10.4397H12.8723L12.6396 11.9287H10.7274L12.3737 2.61664H15.4752ZM39.591 8.74993L38.9828 4.85729H38.6232L38.0148 8.74993H39.591ZM40.3538 2.61664L42 11.9287H40.0878L39.8552 10.4397H37.7508L37.5182 11.9287H35.606L37.2522 2.61664H40.3538Z" fill="#5A5A5A"/>
<path fill-rule="evenodd" clip-rule="evenodd" d="M9.00294 0L8.37929 8.9187L8.2117 8.92729L6.72846 2.6175H4.89569L3.78611 9.15548L3.54829 9.16769L2.55484 2.6175H0L2.32435 12.3686L4.92261 12.1999L5.76794 6.14729L6.01587 6.13404L7.14783 12.0536L9.63463 11.8911L11.6095 0H9.00294Z" fill="#5A5A5A"/>
</svg>
